<svg xmlns="http://www.w3.org/2000/svg" xmlns:xlink="http://www.w3.org/1999/xlink" width="32" height="32" version="1.1" viewBox="0 0 32 32"><title>Artboard 1</title><desc>Created with Sketch.</desc><g id="Page-1" fill="none" fill-rule="evenodd" stroke="none" stroke-width="1"><g id="Artboard-1"><path id="Oval-1" fill="#1DC9FE" stroke="#FFF" stroke-width="1.6" d="M10.9303647,3.76081776 C11.8836746,1.9333344 13.7961387,0.685714286 16,0.685714286 C18.2038613,0.685714286 20.1163254,1.9333344 21.0696353,3.76081776 C23.0359533,3.14268382 25.2704701,3.61279951 26.8288353,5.17116472 C28.3872006,6.72953002 28.8573162,8.96404697 28.2391822,10.9303647 L28.2391826,10.9303649 C30.0666657,11.8836748 31.3142857,13.7961388 31.3142857,16 C31.3142857,18.2038613 30.0666656,20.1163254 28.2391822,21.0696353 C28.8573162,23.0359533 28.3872005,25.2704701 26.8288353,26.8288353 C25.27047,28.3872006 23.035953,28.8573162 21.0696353,28.2391822 L21.0696351,28.2391826 C20.1163252,30.0666657 18.2038612,31.3142857 16,31.3142857 C13.7961387,31.3142857 11.8836746,30.0666656 10.9303647,28.2391822 C8.96404672,28.8573162 6.72952994,28.3872005 5.17116472,26.8288353 C3.61279942,25.27047 3.14268377,23.035953 3.76081776,21.0696353 L3.76081745,21.0696351 C1.93333426,20.1163252 0.685714286,18.2038612 0.685714286,16 C0.685714286,13.7961387 1.9333344,11.8836746 3.76081776,10.9303647 C3.14268382,8.96404672 3.61279951,6.72952994 5.17116472,5.17116472 C6.72952994,3.61279951 8.96404672,3.14268382 10.9303644,3.76081765 L10.9303647,3.76081776 L10.9303647,3.76081776 Z"/><path id="Path-1" fill="#FFF" d="M10.3742217,16 L13.4108985,18.9369054 L22.1972884,10.2886487 L24.2513756,12.4998868 L13.6787213,22.7775995 L8.51799814,17.7603655 L10.3742217,16 Z"/></g></g></svg>