<svg xmlns="http://www.w3.org/2000/svg" xmlns:xlink="http://www.w3.org/1999/xlink" width="96" height="96" x="0" y="0" enable-background="new 0 0 96 96" version="1.0" viewBox="0 0 96 96" xml:space="preserve"><g id="_x35__content_copy"><path fill="#333" fill-rule="evenodd" d="M60.005,17.99h-36.01v48.02h3v6h-3h-6V11.99 h48.01v6v3h-6V17.99z M64.675,67.01h-22.68v-2h22.68V67.01z M55.335,61h-13.34v-2h13.34V61z M59.335,55h-17.34v-2h17.34V55z M66.005,49h-24.01v-2h24.01V49z M55.335,43h-13.34v-2h13.34V43z M72.005,30h-36.01v48.01h36.01V30z M29.995,84.01V23.99h48.01 v60.02H29.995z" clip-rule="evenodd" display="inline"/></g></svg>