<svg xmlns="http://www.w3.org/2000/svg" xmlns:xlink="http://www.w3.org/1999/xlink" width="96" height="96" x="0" y="0" enable-background="new 0 0 96 96" version="1.0" viewBox="0 0 96 96" xml:space="preserve"><g id="_x36__social_person"><g display="inline"><path fill="#333" d="M47.996,19.127c-10.653,0-19.286,8.634-19.286,19.287c0,10.656,8.633,19.289,19.286,19.289 c10.656,0,19.29-8.633,19.29-19.289C67.286,27.761,58.652,19.127,47.996,19.127z M48.937,53.689 c-5.749,0-10.807-3.775-13.754-9.49H62.69C59.743,49.914,54.688,53.689,48.937,53.689z"/><path fill="#333" d="M59.637,60.205c-3.469,1.859-7.433,2.92-11.641,2.92c-4.204,0-8.166-1.059-11.636-2.92 c-7.493,1.969-13.367,6.635-16.058,16.668h55.395C73.006,66.838,67.135,62.172,59.637,60.205z"/></g></g></svg>