<svg xmlns="http://www.w3.org/2000/svg" width="127.984" height="127.984" viewBox="0 0 96 96"><path id="未命名" fill="#000" d="M 12.00,12.00 C 12.00,12.00 45.00,12.00 45.00,12.00 45.00,12.00 45.00,60.00 45.00,60.00 45.00,60.00 12.00,60.00 12.00,60.00 12.00,60.00 12.00,12.00 12.00,12.00 Z M 51.00,12.00 C 51.00,12.00 84.00,12.00 84.00,12.00 84.00,12.00 84.00,46.00 84.00,46.00 84.00,46.00 51.00,46.00 51.00,46.00 51.00,46.00 51.00,12.00 51.00,12.00 Z M 51.00,53.00 C 51.00,53.00 84.00,53.00 84.00,53.00 84.00,53.00 84.00,84.00 84.00,84.00 84.00,84.00 51.00,84.00 51.00,84.00 51.00,84.00 51.00,53.00 51.00,53.00 Z M 45.00,67.00 C 45.00,67.00 45.00,84.00 45.00,84.00 45.00,84.00 12.00,84.00 12.00,84.00 12.00,84.00 12.00,67.00 12.00,67.00 12.00,67.00 45.00,67.00 45.00,67.00 Z"/></svg>